<mxfile host="app.diagrams.net" modified="2023-03-12T07:10:31.156Z" agent="5.0 (Macintosh; Intel Mac OS X 10_15_7) AppleWebKit/537.36 (KHTML, like Gecko) Chrome/110.0.0.0 Safari/537.36" etag="nJiiiyuPC5xxfK_hM_qF" version="20.8.13" type="github">
  <diagram name="第 1 页" id="zxHX7EMfzwXilYYgz8ed">
    <mxGraphModel dx="1647" dy="911" grid="1" gridSize="10" guides="1" tooltips="1" connect="1" arrows="1" fold="1" page="1" pageScale="1" pageWidth="827" pageHeight="1169" math="0" shadow="0">
      <root>
        <mxCell id="0" />
        <mxCell id="1" parent="0" />
        <mxCell id="tKrHoIPLqQLZZzD5QU7e-4" style="edgeStyle=orthogonalEdgeStyle;rounded=0;orthogonalLoop=1;jettySize=auto;html=1;entryX=0.5;entryY=0;entryDx=0;entryDy=0;" edge="1" parent="1" source="tKrHoIPLqQLZZzD5QU7e-1" target="tKrHoIPLqQLZZzD5QU7e-2">
          <mxGeometry relative="1" as="geometry" />
        </mxCell>
        <mxCell id="tKrHoIPLqQLZZzD5QU7e-5" style="edgeStyle=orthogonalEdgeStyle;rounded=0;orthogonalLoop=1;jettySize=auto;html=1;" edge="1" parent="1" source="tKrHoIPLqQLZZzD5QU7e-1" target="tKrHoIPLqQLZZzD5QU7e-3">
          <mxGeometry relative="1" as="geometry" />
        </mxCell>
        <mxCell id="tKrHoIPLqQLZZzD5QU7e-1" value="0" style="rounded=0;whiteSpace=wrap;html=1;" vertex="1" parent="1">
          <mxGeometry x="730" y="130" width="120" height="40" as="geometry" />
        </mxCell>
        <mxCell id="tKrHoIPLqQLZZzD5QU7e-10" style="edgeStyle=orthogonalEdgeStyle;rounded=0;orthogonalLoop=1;jettySize=auto;html=1;entryX=0.5;entryY=0;entryDx=0;entryDy=0;" edge="1" parent="1" source="tKrHoIPLqQLZZzD5QU7e-2" target="tKrHoIPLqQLZZzD5QU7e-7">
          <mxGeometry relative="1" as="geometry" />
        </mxCell>
        <mxCell id="tKrHoIPLqQLZZzD5QU7e-11" style="edgeStyle=orthogonalEdgeStyle;rounded=0;orthogonalLoop=1;jettySize=auto;html=1;" edge="1" parent="1" source="tKrHoIPLqQLZZzD5QU7e-2" target="tKrHoIPLqQLZZzD5QU7e-8">
          <mxGeometry relative="1" as="geometry">
            <Array as="points">
              <mxPoint x="670" y="330" />
              <mxPoint x="780" y="330" />
            </Array>
          </mxGeometry>
        </mxCell>
        <mxCell id="tKrHoIPLqQLZZzD5QU7e-16" style="edgeStyle=orthogonalEdgeStyle;rounded=0;orthogonalLoop=1;jettySize=auto;html=1;entryX=1;entryY=0.5;entryDx=0;entryDy=0;entryPerimeter=0;" edge="1" parent="1" source="tKrHoIPLqQLZZzD5QU7e-2" target="tKrHoIPLqQLZZzD5QU7e-14">
          <mxGeometry relative="1" as="geometry" />
        </mxCell>
        <mxCell id="tKrHoIPLqQLZZzD5QU7e-2" value="1" style="rounded=0;whiteSpace=wrap;html=1;" vertex="1" parent="1">
          <mxGeometry x="610" y="250" width="120" height="40" as="geometry" />
        </mxCell>
        <mxCell id="tKrHoIPLqQLZZzD5QU7e-12" style="edgeStyle=orthogonalEdgeStyle;rounded=0;orthogonalLoop=1;jettySize=auto;html=1;" edge="1" parent="1" source="tKrHoIPLqQLZZzD5QU7e-3" target="tKrHoIPLqQLZZzD5QU7e-8">
          <mxGeometry relative="1" as="geometry" />
        </mxCell>
        <mxCell id="tKrHoIPLqQLZZzD5QU7e-13" style="edgeStyle=orthogonalEdgeStyle;rounded=0;orthogonalLoop=1;jettySize=auto;html=1;" edge="1" parent="1" source="tKrHoIPLqQLZZzD5QU7e-3" target="tKrHoIPLqQLZZzD5QU7e-9">
          <mxGeometry relative="1" as="geometry" />
        </mxCell>
        <mxCell id="tKrHoIPLqQLZZzD5QU7e-3" value="2" style="rounded=0;whiteSpace=wrap;html=1;" vertex="1" parent="1">
          <mxGeometry x="850" y="250" width="120" height="40" as="geometry" />
        </mxCell>
        <mxCell id="tKrHoIPLqQLZZzD5QU7e-7" value="3" style="rounded=0;whiteSpace=wrap;html=1;" vertex="1" parent="1">
          <mxGeometry x="530" y="370" width="120" height="40" as="geometry" />
        </mxCell>
        <mxCell id="tKrHoIPLqQLZZzD5QU7e-8" value="4" style="rounded=0;whiteSpace=wrap;html=1;" vertex="1" parent="1">
          <mxGeometry x="730" y="370" width="120" height="40" as="geometry" />
        </mxCell>
        <mxCell id="tKrHoIPLqQLZZzD5QU7e-9" value="5" style="rounded=0;whiteSpace=wrap;html=1;" vertex="1" parent="1">
          <mxGeometry x="930" y="370" width="120" height="40" as="geometry" />
        </mxCell>
        <mxCell id="tKrHoIPLqQLZZzD5QU7e-18" style="edgeStyle=orthogonalEdgeStyle;rounded=0;orthogonalLoop=1;jettySize=auto;html=1;entryX=0.5;entryY=0;entryDx=0;entryDy=0;" edge="1" parent="1" target="tKrHoIPLqQLZZzD5QU7e-17">
          <mxGeometry relative="1" as="geometry">
            <mxPoint x="510" y="270" as="sourcePoint" />
          </mxGeometry>
        </mxCell>
        <mxCell id="tKrHoIPLqQLZZzD5QU7e-14" value="resource db" style="shape=cylinder3;whiteSpace=wrap;html=1;boundedLbl=1;backgroundOutline=1;size=15;" vertex="1" parent="1">
          <mxGeometry x="430" y="230" width="60" height="80" as="geometry" />
        </mxCell>
        <mxCell id="tKrHoIPLqQLZZzD5QU7e-20" style="edgeStyle=orthogonalEdgeStyle;rounded=0;orthogonalLoop=1;jettySize=auto;html=1;entryX=0.5;entryY=0;entryDx=0;entryDy=0;entryPerimeter=0;" edge="1" parent="1" source="tKrHoIPLqQLZZzD5QU7e-17" target="tKrHoIPLqQLZZzD5QU7e-19">
          <mxGeometry relative="1" as="geometry" />
        </mxCell>
        <mxCell id="tKrHoIPLqQLZZzD5QU7e-17" value="cdc" style="rounded=1;whiteSpace=wrap;html=1;" vertex="1" parent="1">
          <mxGeometry x="250" y="290" width="120" height="40" as="geometry" />
        </mxCell>
        <mxCell id="tKrHoIPLqQLZZzD5QU7e-23" value="" style="edgeStyle=orthogonalEdgeStyle;rounded=0;orthogonalLoop=1;jettySize=auto;html=1;" edge="1" parent="1" source="tKrHoIPLqQLZZzD5QU7e-19" target="tKrHoIPLqQLZZzD5QU7e-22">
          <mxGeometry relative="1" as="geometry" />
        </mxCell>
        <mxCell id="tKrHoIPLqQLZZzD5QU7e-19" value="" style="shape=cylinder3;whiteSpace=wrap;html=1;boundedLbl=1;backgroundOutline=1;size=15;" vertex="1" parent="1">
          <mxGeometry x="280" y="370" width="60" height="80" as="geometry" />
        </mxCell>
        <mxCell id="tKrHoIPLqQLZZzD5QU7e-24" style="edgeStyle=orthogonalEdgeStyle;rounded=0;orthogonalLoop=1;jettySize=auto;html=1;entryX=0;entryY=0.5;entryDx=0;entryDy=0;" edge="1" parent="1" source="tKrHoIPLqQLZZzD5QU7e-22" target="tKrHoIPLqQLZZzD5QU7e-7">
          <mxGeometry relative="1" as="geometry" />
        </mxCell>
        <mxCell id="tKrHoIPLqQLZZzD5QU7e-25" style="edgeStyle=orthogonalEdgeStyle;rounded=0;orthogonalLoop=1;jettySize=auto;html=1;entryX=0;entryY=0.5;entryDx=0;entryDy=0;" edge="1" parent="1" source="tKrHoIPLqQLZZzD5QU7e-22" target="tKrHoIPLqQLZZzD5QU7e-8">
          <mxGeometry relative="1" as="geometry">
            <Array as="points">
              <mxPoint x="680" y="520" />
              <mxPoint x="680" y="390" />
            </Array>
          </mxGeometry>
        </mxCell>
        <mxCell id="tKrHoIPLqQLZZzD5QU7e-27" style="edgeStyle=orthogonalEdgeStyle;rounded=0;orthogonalLoop=1;jettySize=auto;html=1;entryX=0;entryY=0.5;entryDx=0;entryDy=0;entryPerimeter=0;" edge="1" parent="1" source="tKrHoIPLqQLZZzD5QU7e-22" target="tKrHoIPLqQLZZzD5QU7e-26">
          <mxGeometry relative="1" as="geometry" />
        </mxCell>
        <mxCell id="tKrHoIPLqQLZZzD5QU7e-22" value="task state sync" style="rounded=1;whiteSpace=wrap;html=1;" vertex="1" parent="1">
          <mxGeometry x="250" y="500" width="120" height="40" as="geometry" />
        </mxCell>
        <mxCell id="tKrHoIPLqQLZZzD5QU7e-26" value="task db" style="shape=cylinder3;whiteSpace=wrap;html=1;boundedLbl=1;backgroundOutline=1;size=15;" vertex="1" parent="1">
          <mxGeometry x="430" y="585" width="60" height="80" as="geometry" />
        </mxCell>
      </root>
    </mxGraphModel>
  </diagram>
</mxfile>
